<?xml version="1.0" encoding="UTF-8"?>
<svg version="1.1" xmlns="http://www.w3.org/2000/svg" width="1200" height="1200">
<path d="M0 0 C1.5600174 -0.00101212 1.5600174 -0.00101212 3.15155029 -0.00204468 C76.75218357 0.07348587 157.41853091 17.11311979 215.625 64.25 C216.34945312 64.82878906 217.07390625 65.40757813 217.8203125 66.00390625 C222.26877465 69.6644121 225.93588464 73.83843288 229.625 78.25 C230.32625 79.05179687 231.0275 79.85359375 231.75 80.6796875 C250.54528044 102.67277607 260.01065546 129.35083072 259.85205078 158.19824219 C259.85148522 159.65812167 259.85180605 161.11800171 259.85293579 162.57788086 C259.85350466 166.50271603 259.84182673 170.42742649 259.82778788 174.35223293 C259.81520196 178.46815276 259.81410387 182.58407611 259.81173706 186.70001221 C259.80554523 194.47698627 259.78916581 202.25390344 259.76903808 210.03085256 C259.7466072 218.89189739 259.73566765 227.75294508 259.72564721 236.61401129 C259.7047973 254.82603966 259.66966645 273.03801524 259.625 291.25 C260.32385472 291.24723462 261.02270945 291.24446924 261.74274158 291.24162006 C278.83201077 291.1750562 295.92124657 291.12557269 313.01061726 291.09456348 C321.27527364 291.07916497 329.53984292 291.05821157 337.80444336 291.02368164 C345.01687551 290.99356236 352.22924452 290.97437419 359.44173783 290.96773452 C363.25253676 290.96385994 367.0631552 290.95490519 370.87389565 290.93280983 C410.32860152 290.71317996 445.06630885 297.23478203 474.1796875 325.81298828 C474.65664062 326.28720215 475.13359375 326.76141602 475.625 327.25 C476.09679688 327.71776855 476.56859375 328.18553711 477.0546875 328.66748047 C484.78068641 336.43883227 490.86022397 344.95667696 496.625 354.25 C497.30175781 355.31347656 497.97851562 356.37695312 498.67578125 357.47265625 C526.30529321 403.04197157 535.61591654 463.04070121 541.625 515.25 C541.74214355 516.24128906 541.85928711 517.23257813 541.97998047 518.25390625 C545.20230511 546.71378389 545.25112084 576.83224861 541.625 605.25 C541.49609375 606.27480469 541.3671875 607.29960938 541.234375 608.35546875 C533.92506608 664.46118259 514.95785251 735.7349726 476.625 779.25 C475.88378906 780.09949219 475.14257812 780.94898438 474.37890625 781.82421875 C472.15821456 784.32951848 469.90089332 786.79486966 467.625 789.25 C467.08617187 789.85457031 466.54734375 790.45914063 465.9921875 791.08203125 C447.56322879 810.85380354 418.74779369 821.36632001 392.18696213 822.3393116 C389.68314068 822.37147196 387.18124891 822.37397264 384.67724609 822.36352539 C383.73944305 822.36367142 382.80164001 822.36381744 381.8354187 822.3639679 C378.77306709 822.36327798 375.71077832 822.35552924 372.6484375 822.34765625 C370.51038649 822.34578879 368.37233504 822.34436644 366.23428345 822.34336853 C360.63497719 822.33956917 355.03569729 822.32976117 349.43640137 822.31866455 C343.71151079 822.30839469 337.98661591 822.30385901 332.26171875 822.29882812 C321.04946765 822.28813637 309.83723603 822.27109127 298.625 822.25 C298.625 827.86 298.625 833.47 298.625 839.25 C301.265 839.58 303.905 839.91 306.625 840.25 C311.42094551 841.34743191 316.14386452 842.71518628 320.875 844.0625 C321.90894394 844.35536392 321.90894394 844.35536392 322.96377563 844.65414429 C350.50186017 852.48562963 377.42574674 861.67571512 403.625 873.25 C404.98214111 873.84675537 404.98214111 873.84675537 406.36669922 874.45556641 C425.64061938 883.01804162 443.78372263 893.55356088 460.625 906.25 C461.61628906 906.99636719 462.60757813 907.74273438 463.62890625 908.51171875 C483.02751778 923.78777237 499.43688568 942.92869076 504.3125 967.75 C506.21073655 989.0102494 499.04921871 1006.98696801 485.625 1023.25 C465.52322842 1047.06965409 438.50281861 1063.00287128 410.625 1076.25 C409.46170166 1076.81170898 409.46170166 1076.81170898 408.27490234 1077.38476562 C323.11374413 1118.33181868 223.80322366 1133.37391187 127.625 1141.5625 C126.74327118 1141.6378598 125.86154236 1141.7132196 124.95309448 1141.79086304 C118.18199902 1142.35951229 111.40646185 1142.82392268 104.625 1143.25 C103.96843666 1143.29194111 103.31187332 1143.33388222 102.63541412 1143.37709427 C74.36227466 1145.17329679 46.14545387 1145.61625906 17.81990814 1145.56805801 C14.44522555 1145.5624083 11.070548 1145.5595937 7.69586182 1145.55697632 C-25.41883711 1145.51965668 -58.36204799 1145.06540072 -91.375 1142.25 C-93.54295316 1142.07110007 -95.71092239 1141.89239477 -97.87890625 1141.71386719 C-183.78608089 1134.54137844 -270.92346473 1120.87828071 -457.8046875 1024.421875 C-469.61773128 1010.23197916 -478.38008566 992.70670233 -477.66015625 973.83203125 C-475.27522163 952.23693832 -465.09495388 936.50174412 -450.375 921.25 C-449.66859375 920.48042969 -448.9621875 919.71085938 -448.234375 918.91796875 C-402.95217619 870.95686123 -324.98067799 851.00117555 -262.9375 836.25 C-262.13853302 836.059823 -261.33956604 835.869646 -260.51638794 835.67370605 C-258.22188724 835.13076051 -255.92586144 834.59495756 -253.62890625 834.0625 C-252.97083984 833.90775208 -252.31277344 833.75300415 -251.63476562 833.59356689 C-245.56426471 832.20607233 -239.55629769 831.28021628 -233.375 830.25 C-233.375 814.08 -233.375 797.91 -233.375 781.25 C-237.10699707 781.26047363 -240.83899414 781.27094727 -244.68408203 781.28173828 C-257.09316511 781.31505977 -269.50224764 781.33714419 -281.9113636 781.35362434 C-289.42595856 781.36387264 -296.94051069 781.37780716 -304.45507812 781.40087891 C-311.01600836 781.42101287 -317.57690753 781.43376306 -324.13786781 781.43817699 C-327.60163659 781.44075109 -331.06531664 781.44666083 -334.52905655 781.46146011 C-373.96988151 781.61103785 -410.60597137 778.48815649 -441.375 751.25 C-442.07882812 750.67765625 -442.78265625 750.1053125 -443.5078125 749.515625 C-449.28776972 744.75566023 -453.83117705 739.17738301 -458.375 733.25 C-458.77477051 732.73050781 -459.17454102 732.21101562 -459.58642578 731.67578125 C-509.08235545 666.75535583 -520.93048755 560.94553937 -513.5625 460.86328125 C-505.50931696 402.75259025 -485.03922103 334.44714114 -446.375 289.25 C-445.68921875 288.41726563 -445.0034375 287.58453125 -444.296875 286.7265625 C-432.17105644 272.4899533 -416.03525975 261.89658878 -398.375 255.875 C-397.71274414 255.6483667 -397.05048828 255.4217334 -396.36816406 255.18823242 C-380.78138743 250.265995 -365.69518654 249.83792086 -349.5 249.95703125 C-347.23600549 249.96263945 -344.97200729 249.96690375 -342.70800781 249.96989441 C-336.80291359 249.98124685 -330.89804731 250.01062945 -324.99304199 250.04400635 C-318.94591351 250.0749163 -312.89874753 250.0884441 -306.8515625 250.10351562 C-295.02594254 250.13550992 -283.20049036 250.18658753 -271.375 250.25 C-271.3763092 249.01181015 -271.37761841 247.7736203 -271.37896729 246.49790955 C-271.42859534 194.68790901 -271.42859534 194.68790901 -271.19109344 174.0168705 C-271.15089488 170.51146157 -271.11891344 167.00634844 -271.10400391 163.50073242 C-270.94766546 129.09683807 -263.1863131 102.85551256 -238.375 78.25 C-226.17826601 66.21328147 -212.26643153 56.62462302 -197.375 48.25 C-196.69050781 47.85989746 -196.00601562 47.46979492 -195.30078125 47.06787109 C-147.19111735 19.86926102 -90.01631153 6.60844555 -35.375 1.25 C-34.44333008 1.15428711 -33.51166016 1.05857422 -32.55175781 0.95996094 C-21.72224467 -0.02325877 -10.86529213 0.00635221 0 0 Z " fill="#FFECA0" transform="translate(586.375,26.75)"/>
<path d="M0 0 C1.5600174 -0.00101212 1.5600174 -0.00101212 3.15155029 -0.00204468 C76.75218357 0.07348587 157.41853091 17.11311979 215.625 64.25 C216.34945312 64.82878906 217.07390625 65.40757813 217.8203125 66.00390625 C222.26877465 69.6644121 225.93588464 73.83843288 229.625 78.25 C230.32625 79.05179687 231.0275 79.85359375 231.75 80.6796875 C249.39516783 101.32698458 260.00224072 127.38663309 259.87896729 154.66600037 C259.88208727 155.74922248 259.88520725 156.8324446 259.88842177 157.94849163 C259.8963373 161.54311063 259.89010337 165.13755777 259.88378906 168.73217773 C259.8865018 171.32366026 259.89006432 173.91514201 259.89440918 176.50662231 C259.90326598 182.79393099 259.90139772 189.0811917 259.8955839 195.36850219 C259.89105232 200.48252475 259.89046095 205.59653394 259.89263153 210.71055794 C259.892938 211.44064939 259.89324446 212.17074084 259.89356022 212.92295628 C259.89419972 214.40650837 259.89484815 215.89006045 259.8955054 217.37361253 C259.90119792 231.25976333 259.89466797 245.14588765 259.88390467 259.03203411 C259.87497202 270.92411998 259.87652093 282.81616679 259.88574219 294.70825195 C259.89646716 308.54589466 259.90064673 322.38351419 259.89451766 336.22116047 C259.89388062 337.69931574 259.89325188 339.17747102 259.89263153 340.6556263 C259.89232298 341.38274641 259.89201443 342.10986652 259.89169653 342.85902057 C259.88997612 347.9611437 259.89287056 353.06325202 259.89759064 358.16537285 C259.90381527 365.0445219 259.89932599 371.92359633 259.88780212 378.80273819 C259.88516748 381.32093878 259.8859001 383.8391456 259.89032745 386.35734367 C259.93854396 416.57851549 259.93854396 416.57851549 254.6875 430.25 C254.38739014 431.04196777 254.08728027 431.83393555 253.77807617 432.64990234 C245.63217689 453.39265758 233.91980765 472.06595934 218.625 488.25 C217.43234478 489.64143109 216.24459687 491.03708794 215.0625 492.4375 C211.55144794 496.44441818 207.75218174 499.88762155 203.625 503.25 C202.67753906 504.0234375 201.73007812 504.796875 200.75390625 505.59375 C172.37019912 528.31224118 142.21572857 536.56610691 106.25830078 536.52124023 C103.91769226 536.52563433 101.5770853 536.53093896 99.23648071 536.53707886 C94.21991141 536.54852628 89.20338405 536.55403439 84.18680191 536.55496025 C76.91650801 536.55674566 69.64628036 536.57148553 62.37601505 536.59045542 C50.55358324 536.62120824 38.73114949 536.64541389 26.90869141 536.66333008 C26.20305785 536.66440276 25.49742429 536.66547544 24.7704079 536.66658062 C16.90109884 536.67839646 9.03178901 536.6886047 1.16247559 536.69702148 C-1.69099937 536.70009569 -4.54447431 536.70318445 -7.39794922 536.70629883 C-8.10210358 536.70706417 -8.80625794 536.70782951 -9.53175031 536.70861804 C-21.31155205 536.72174119 -33.09129867 536.74643465 -44.87105954 536.78004223 C-52.75619726 536.80200591 -60.64121797 536.80988496 -68.52638602 536.80764949 C-73.44597811 536.80932491 -78.36547892 536.82342619 -83.28503799 536.84086227 C-85.55202821 536.84642622 -87.81903764 536.84698015 -90.08602905 536.84192467 C-130.0909347 536.76211883 -160.98964068 551.85099736 -190.375 578.25 C-191.10074219 578.89066406 -191.82648438 579.53132812 -192.57421875 580.19140625 C-214.50466442 600.74257861 -229.71704837 631.3715621 -231.56772041 661.3743515 C-231.64973009 664.55395414 -231.67626329 667.72852977 -231.67797852 670.90917969 C-231.68641785 672.09940735 -231.69485718 673.28963501 -231.70355225 674.51593018 C-231.72908716 678.4012497 -231.74140815 682.28649374 -231.75390625 686.171875 C-231.76892735 688.88618426 -231.78713813 691.60046918 -231.80540466 694.3147583 C-231.84679248 700.69860729 -231.87934018 707.08246403 -231.90787882 713.46638227 C-231.9591954 724.93184884 -232.02096161 736.39725169 -232.09321922 747.86260533 C-232.11405676 751.22430212 -232.13236239 754.58597822 -232.14520454 757.94771576 C-232.15979629 761.67969638 -232.18007187 765.41160757 -232.20141602 769.14355469 C-232.20402939 770.26032593 -232.20664276 771.37709717 -232.20933533 772.52770996 C-232.21623383 773.53682434 -232.22313232 774.54593872 -232.23023987 775.58563232 C-232.23409478 776.46749584 -232.2379497 777.34935936 -232.24192142 778.25794601 C-232.375 780.25 -232.375 780.25 -233.375 781.25 C-234.97034347 781.35035014 -236.57013114 781.38075942 -238.16862488 781.38371277 C-239.20680359 781.38797775 -240.2449823 781.39224274 -241.31462097 781.39663696 C-242.4640065 781.39618378 -243.61339203 781.39573059 -244.79760742 781.39526367 C-246.00111847 781.39862228 -247.20462952 781.4019809 -248.4446106 781.40544128 C-251.76205762 781.41334546 -255.07944204 781.41662125 -258.39689422 781.41725707 C-260.47804707 781.41796792 -262.55919339 781.42010333 -264.64034462 781.42275429 C-271.92763304 781.43203126 -279.21490314 781.43608788 -286.50219727 781.43530273 C-293.24498432 781.43470729 -299.98768998 781.44514684 -306.73045653 781.4610464 C-312.54648747 781.47426063 -318.36249237 781.47948062 -324.17853814 781.47884732 C-327.63892833 781.47859556 -331.09924685 781.48126213 -334.55962181 781.49202538 C-373.98871172 781.59311404 -410.61366251 778.48134794 -441.375 751.25 C-442.07882812 750.67765625 -442.78265625 750.1053125 -443.5078125 749.515625 C-449.28776972 744.75566023 -453.83117705 739.17738301 -458.375 733.25 C-458.77477051 732.73050781 -459.17454102 732.21101562 -459.58642578 731.67578125 C-509.08235545 666.75535583 -520.93048755 560.94553937 -513.5625 460.86328125 C-505.50931696 402.75259025 -485.03922103 334.44714114 -446.375 289.25 C-445.68921875 288.41726563 -445.0034375 287.58453125 -444.296875 286.7265625 C-432.17105644 272.4899533 -416.03525975 261.89658878 -398.375 255.875 C-397.71274414 255.6483667 -397.05048828 255.4217334 -396.36816406 255.18823242 C-380.78138743 250.265995 -365.69518654 249.83792086 -349.5 249.95703125 C-347.23600549 249.96263945 -344.97200729 249.96690375 -342.70800781 249.96989441 C-336.80291359 249.98124685 -330.89804731 250.01062945 -324.99304199 250.04400635 C-318.94591351 250.0749163 -312.89874753 250.0884441 -306.8515625 250.10351562 C-295.02594254 250.13550992 -283.20049036 250.18658753 -271.375 250.25 C-271.3763092 249.01181015 -271.37761841 247.7736203 -271.37896729 246.49790955 C-271.42859534 194.68790901 -271.42859534 194.68790901 -271.19109344 174.0168705 C-271.15089488 170.51146157 -271.11891344 167.00634844 -271.10400391 163.50073242 C-270.94766546 129.09683807 -263.1863131 102.85551256 -238.375 78.25 C-226.17826601 66.21328147 -212.26643153 56.62462302 -197.375 48.25 C-196.69050781 47.85989746 -196.00601562 47.46979492 -195.30078125 47.06787109 C-147.19111735 19.86926102 -90.01631153 6.60844555 -35.375 1.25 C-34.44333008 1.15428711 -33.51166016 1.05857422 -32.55175781 0.95996094 C-21.72224467 -0.02325877 -10.86529213 0.00635221 0 0 Z " fill="#5687B0" transform="translate(586.375,26.75)"/>
<path d="M0 0 C0.00586624 1.14210938 0.01173248 2.28421875 0.01777649 3.4609375 C0.07528654 14.28716994 0.14819274 25.11320695 0.23571491 35.9392395 C0.28021567 41.50342324 0.31951517 47.06753717 0.34643555 52.63183594 C0.37267267 58.01365631 0.41321534 63.39520502 0.46318626 68.77685547 C0.47971822 70.8178364 0.49131674 72.85886417 0.49761391 74.89990234 C0.61811367 110.40524099 11.25769871 141.18567526 36 167 C36.73347656 167.79664063 37.46695312 168.59328125 38.22265625 169.4140625 C48.89290145 180.63652406 61.7462306 189.39702331 75.18505859 196.97509766 C76.93069591 197.96086379 78.66295097 198.9702142 80.39453125 199.98046875 C114.64125435 219.23704369 155.35813515 228.99551202 193.875 235.4375 C194.58029846 235.55715118 195.28559692 235.67680237 196.01226807 235.80007935 C216.97116107 239.30940822 237.83129441 240.38187433 259.0625 240.3125 C260.80672241 240.30976578 260.80672241 240.30976578 262.58618164 240.30697632 C280.24783524 240.26044883 297.52245918 239.72645454 315 237 C316.19334961 236.81775879 317.38669922 236.63551758 318.61621094 236.44775391 C343.20792133 232.61590317 367.24323828 227.42742666 391 220 C392.09393066 219.65952637 393.18786133 219.31905273 394.31494141 218.96826172 C428.02067941 208.37669326 461.04664958 194.30988677 488 171 C488.82886719 170.30519531 489.65773438 169.61039063 490.51171875 168.89453125 C514.01780301 148.63575533 528.06190456 120.8682802 531 90 C531.37729941 83.64584416 531.37154102 77.27732779 531.4140625 70.9140625 C531.43281902 69.11802323 531.45239559 67.32199236 531.4727478 65.52597046 C531.52360211 60.84742229 531.56347457 56.16884569 531.60089111 51.49017334 C531.64122724 46.69650514 531.69218291 41.90295037 531.7421875 37.109375 C531.83839213 27.73966356 531.92297041 18.36988736 532 9 C539.66671943 9.9154186 546.82265057 11.69736932 554.25 13.8125 C554.93929596 14.00774261 555.62859192 14.20298523 556.33877563 14.40414429 C583.87686017 22.23562963 610.80074674 31.42571512 637 43 C637.90476074 43.39783691 638.80952148 43.79567383 639.74169922 44.20556641 C659.01561938 52.76804162 677.15872263 63.30356088 694 76 C694.99128906 76.74636719 695.98257813 77.49273438 697.00390625 78.26171875 C716.40251778 93.53777237 732.81188568 112.67869076 737.6875 137.5 C739.58573655 158.7602494 732.42421871 176.73696801 719 193 C698.89822842 216.81965409 671.87781861 232.75287128 644 246 C643.22446777 246.37447266 642.44893555 246.74894531 641.64990234 247.13476562 C556.48874413 288.08181868 457.17822366 303.12391187 361 311.3125 C360.11827118 311.3878598 359.23654236 311.4632196 358.32809448 311.54086304 C351.55699902 312.10951229 344.78146185 312.57392268 338 313 C337.34343666 313.04194111 336.68687332 313.08388222 336.01041412 313.12709427 C307.73727466 314.92329679 279.52045387 315.36625906 251.19490814 315.31805801 C247.82022555 315.3124083 244.445548 315.3095937 241.07086182 315.30697632 C207.95616289 315.26965668 175.01295201 314.81540072 142 312 C139.83204684 311.82110007 137.66407761 311.64239477 135.49609375 311.46386719 C49.58891911 304.29137844 -37.54846473 290.62828071 -224.4296875 194.171875 C-236.24273128 179.98197916 -245.00508566 162.45670233 -244.28515625 143.58203125 C-241.90022163 121.98693832 -231.71995388 106.25174412 -217 91 C-216.29359375 90.23042969 -215.5871875 89.46085938 -214.859375 88.66796875 C-171.12863768 42.35010766 -64.34239202 0 0 0 Z " fill="#000000" transform="translate(353,857)"/>
<path d="M0 0 C1.5600174 -0.00101212 1.5600174 -0.00101212 3.15155029 -0.00204468 C76.75218357 0.07348587 157.41853091 17.11311979 215.625 64.25 C216.34945312 64.82878906 217.07390625 65.40757813 217.8203125 66.00390625 C222.26877465 69.6644121 225.93588464 73.83843288 229.625 78.25 C230.32625 79.05179687 231.0275 79.85359375 231.75 80.6796875 C249.39516783 101.32698458 260.00224072 127.38663309 259.87896729 154.66600037 C259.88208727 155.74922248 259.88520725 156.8324446 259.88842177 157.94849163 C259.8963373 161.54311063 259.89010337 165.13755777 259.88378906 168.73217773 C259.8865018 171.32366026 259.89006432 173.91514201 259.89440918 176.50662231 C259.90326598 182.79393099 259.90139772 189.0811917 259.8955839 195.36850219 C259.89105232 200.48252475 259.89046095 205.59653394 259.89263153 210.71055794 C259.892938 211.44064939 259.89324446 212.17074084 259.89356022 212.92295628 C259.89419972 214.40650837 259.89484815 215.89006045 259.8955054 217.37361253 C259.90119792 231.25976333 259.89466797 245.14588765 259.88390467 259.03203411 C259.87497202 270.92411998 259.87652093 282.81616679 259.88574219 294.70825195 C259.89646716 308.54589466 259.90064673 322.38351419 259.89451766 336.22116047 C259.89388062 337.69931574 259.89325188 339.17747102 259.89263153 340.6556263 C259.89232298 341.38274641 259.89201443 342.10986652 259.89169653 342.85902057 C259.88997612 347.9611437 259.89287056 353.06325202 259.89759064 358.16537285 C259.90381527 365.0445219 259.89932599 371.92359633 259.88780212 378.80273819 C259.88516748 381.32093878 259.8859001 383.8391456 259.89032745 386.35734367 C259.93854396 416.57851549 259.93854396 416.57851549 254.6875 430.25 C254.38739014 431.04196777 254.08728027 431.83393555 253.77807617 432.64990234 C245.63217689 453.39265758 233.91980765 472.06595934 218.625 488.25 C217.43234478 489.64143109 216.24459687 491.03708794 215.0625 492.4375 C211.55144794 496.44441818 207.75218174 499.88762155 203.625 503.25 C202.67753906 504.0234375 201.73007812 504.796875 200.75390625 505.59375 C172.37019912 528.31224118 142.21572857 536.56610691 106.25830078 536.52124023 C103.91769226 536.52563433 101.5770853 536.53093896 99.23648071 536.53707886 C94.21991141 536.54852628 89.20338405 536.55403439 84.18680191 536.55496025 C76.91650801 536.55674566 69.64628036 536.57148553 62.37601505 536.59045542 C50.55358324 536.62120824 38.73114949 536.64541389 26.90869141 536.66333008 C26.20305785 536.66440276 25.49742429 536.66547544 24.7704079 536.66658062 C16.90109884 536.67839646 9.03178901 536.6886047 1.16247559 536.69702148 C-1.69099937 536.70009569 -4.54447431 536.70318445 -7.39794922 536.70629883 C-8.10210358 536.70706417 -8.80625794 536.70782951 -9.53175031 536.70861804 C-21.31155205 536.72174119 -33.09129867 536.74643465 -44.87105954 536.78004223 C-52.75619726 536.80200591 -60.64121797 536.80988496 -68.52638602 536.80764949 C-73.44597811 536.80932491 -78.36547892 536.82342619 -83.28503799 536.84086227 C-85.55202821 536.84642622 -87.81903764 536.84698015 -90.08602905 536.84192467 C-130.0909347 536.76211883 -160.98964068 551.85099736 -190.375 578.25 C-191.10074219 578.89066406 -191.82648438 579.53132812 -192.57421875 580.19140625 C-214.50466442 600.74257861 -229.71704837 631.3715621 -231.56772041 661.3743515 C-231.64973009 664.55395414 -231.67626329 667.72852977 -231.67797852 670.90917969 C-231.68641785 672.09940735 -231.69485718 673.28963501 -231.70355225 674.51593018 C-231.72908716 678.4012497 -231.74140815 682.28649374 -231.75390625 686.171875 C-231.76892735 688.88618426 -231.78713813 691.60046918 -231.80540466 694.3147583 C-231.84679248 700.69860729 -231.87934018 707.08246403 -231.90787882 713.46638227 C-231.9591954 724.93184884 -232.02096161 736.39725169 -232.09321922 747.86260533 C-232.11405676 751.22430212 -232.13236239 754.58597822 -232.14520454 757.94771576 C-232.15979629 761.67969638 -232.18007187 765.41160757 -232.20141602 769.14355469 C-232.20402939 770.26032593 -232.20664276 771.37709717 -232.20933533 772.52770996 C-232.21623383 773.53682434 -232.22313232 774.54593872 -232.23023987 775.58563232 C-232.23409478 776.46749584 -232.2379497 777.34935936 -232.24192142 778.25794601 C-232.375 780.25 -232.375 780.25 -233.375 781.25 C-234.97034347 781.35035014 -236.57013114 781.38075942 -238.16862488 781.38371277 C-239.20680359 781.38797775 -240.2449823 781.39224274 -241.31462097 781.39663696 C-242.4640065 781.39618378 -243.61339203 781.39573059 -244.79760742 781.39526367 C-246.00111847 781.39862228 -247.20462952 781.4019809 -248.4446106 781.40544128 C-251.76205762 781.41334546 -255.07944204 781.41662125 -258.39689422 781.41725707 C-260.47804707 781.41796792 -262.55919339 781.42010333 -264.64034462 781.42275429 C-271.92763304 781.43203126 -279.21490314 781.43608788 -286.50219727 781.43530273 C-293.24498432 781.43470729 -299.98768998 781.44514684 -306.73045653 781.4610464 C-312.54648747 781.47426063 -318.36249237 781.47948062 -324.17853814 781.47884732 C-327.63892833 781.47859556 -331.09924685 781.48126213 -334.55962181 781.49202538 C-373.98871172 781.59311404 -410.61366251 778.48134794 -441.375 751.25 C-442.07882812 750.67765625 -442.78265625 750.1053125 -443.5078125 749.515625 C-449.28776972 744.75566023 -453.83117705 739.17738301 -458.375 733.25 C-458.77477051 732.73050781 -459.17454102 732.21101562 -459.58642578 731.67578125 C-509.08235545 666.75535583 -520.93048755 560.94553937 -513.5625 460.86328125 C-505.50931696 402.75259025 -485.03922103 334.44714114 -446.375 289.25 C-445.68921875 288.41726563 -445.0034375 287.58453125 -444.296875 286.7265625 C-432.17105644 272.4899533 -416.03525975 261.89658878 -398.375 255.875 C-397.71274414 255.6483667 -397.05048828 255.4217334 -396.36816406 255.18823242 C-380.78138743 250.265995 -365.69518654 249.83792086 -349.5 249.95703125 C-347.23600549 249.96263945 -344.97200729 249.96690375 -342.70800781 249.96989441 C-336.80291359 249.98124685 -330.89804731 250.01062945 -324.99304199 250.04400635 C-318.94591351 250.0749163 -312.89874753 250.0884441 -306.8515625 250.10351562 C-295.02594254 250.13550992 -283.20049036 250.18658753 -271.375 250.25 C-271.3763092 249.01181015 -271.37761841 247.7736203 -271.37896729 246.49790955 C-271.42859534 194.68790901 -271.42859534 194.68790901 -271.19109344 174.0168705 C-271.15089488 170.51146157 -271.11891344 167.00634844 -271.10400391 163.50073242 C-270.94766546 129.09683807 -263.1863131 102.85551256 -238.375 78.25 C-226.17826601 66.21328147 -212.26643153 56.62462302 -197.375 48.25 C-196.69050781 47.85989746 -196.00601562 47.46979492 -195.30078125 47.06787109 C-147.19111735 19.86926102 -90.01631153 6.60844555 -35.375 1.25 C-34.44333008 1.15428711 -33.51166016 1.05857422 -32.55175781 0.95996094 C-21.72224467 -0.02325877 -10.86529213 0.00635221 0 0 Z M-57.01513672 45.80712891 C-59.84833568 46.33883001 -62.68931747 46.8024891 -65.53515625 47.26171875 C-66.61394043 47.43590332 -67.69272461 47.61008789 -68.80419922 47.78955078 C-70.9290739 48.13058791 -73.05438289 48.46893321 -75.18017578 48.80419922 C-80.10559518 49.60544416 -84.66304418 50.56520184 -89.375 52.25 C-91.47330571 52.71479755 -93.57814646 53.15073398 -95.6875 53.5625 C-104.07012611 55.33002659 -112.214151 57.65067928 -120.375 60.25 C-121.23770508 60.52440918 -122.10041016 60.79881836 -122.98925781 61.08154297 C-138.32227181 66.02935287 -152.90129061 72.18545137 -167.375 79.25 C-168.48875 79.79140625 -168.48875 79.79140625 -169.625 80.34375 C-184.86686757 87.84743865 -198.23524788 97.40815591 -210.375 109.25 C-211.05046875 109.86359375 -211.7259375 110.4771875 -212.421875 111.109375 C-223.02239803 120.95941852 -227.83656123 133.28858678 -230.375 147.25 C-230.375 181.24 -230.375 215.23 -230.375 250.25 C-147.545 250.25 -64.715 250.25 20.625 250.25 C20.625 263.78 20.625 277.31 20.625 291.25 C15.75761078 291.24333817 10.89022156 291.23667633 5.87533569 291.22981262 C-38.78088506 291.17008939 -83.43710109 291.12531609 -128.09335307 291.09680401 C-133.94862869 291.09305198 -139.80390421 291.08916901 -145.65917969 291.08520508 C-146.82483772 291.08441815 -147.99049575 291.08363122 -149.19147675 291.08282044 C-168.05459089 291.06977389 -186.91767754 291.04612418 -205.78077538 291.01854161 C-225.14247374 290.99046653 -244.50415772 290.97381929 -263.8658756 290.96773452 C-275.80877989 290.96362245 -287.75160648 290.95064439 -299.69448684 290.9262506 C-307.88912285 290.91036746 -316.08371881 290.90560548 -324.27836908 290.90949587 C-329.00307842 290.91141339 -333.72765217 290.90851677 -338.45233727 290.89238358 C-342.78559837 290.87769567 -347.11863377 290.87710481 -351.45190565 290.88730332 C-353.01204132 290.88856224 -354.57219155 290.88483236 -356.1322989 290.87535045 C-368.71557501 290.80337608 -381.16019255 291.80319932 -392.5 297.75 C-393.16394775 298.09111816 -393.82789551 298.43223633 -394.51196289 298.78369141 C-401.49640002 302.56346493 -406.89538308 307.56951735 -412.375 313.25 C-413.15101563 314.00667969 -413.92703125 314.76335937 -414.7265625 315.54296875 C-450.16166741 351.91716655 -467.00234544 421.48326095 -473.375 470.25 C-473.55289063 471.59819824 -473.55289063 471.59819824 -473.734375 472.97363281 C-478.83289702 513.80733145 -474.5954152 555.05186866 -466.77142334 595.21502686 C-466.38214801 597.21330689 -465.99676583 599.21230852 -465.61181641 601.21142578 C-459.71791722 631.56519883 -452.72361379 663.09946406 -437.375 690.25 C-436.72789062 691.3946875 -436.08078125 692.539375 -435.4140625 693.71875 C-431.03407328 701.12837603 -426.06656083 707.79887072 -420.375 714.25 C-419.82457031 714.88421875 -419.27414062 715.5184375 -418.70703125 716.171875 C-405.74277808 730.12845372 -386.93926135 738.62092948 -368.00562859 739.33998299 C-365.48618746 739.37182188 -362.96859471 739.3738822 -360.44897461 739.36352539 C-359.50156403 739.36367142 -358.55415344 739.36381744 -357.57803345 739.3639679 C-354.47777944 739.36327681 -351.37758714 739.35552241 -348.27734375 739.34765625 C-346.11544325 739.34578921 -343.95354232 739.34436666 -341.79164124 739.34336853 C-336.12491673 739.33956588 -330.45821821 739.32975499 -324.79150391 739.31866455 C-318.99967805 739.30840184 -313.20784797 739.30386053 -307.41601562 739.29882812 C-296.06899906 739.28813056 -284.7220017 739.2710814 -273.375 739.25 C-273.36691315 738.30025299 -273.35882629 737.35050598 -273.35049438 736.37197876 C-273.27239669 727.34176389 -273.18450815 718.31168802 -273.08747292 709.28165627 C-273.03791069 704.64125066 -272.99158371 700.00086353 -272.953125 695.36035156 C-272.91575769 690.86684993 -272.86927284 686.37352022 -272.81693649 681.88016891 C-272.79866134 680.18135017 -272.78345891 678.48249497 -272.77165604 676.78361893 C-272.66405364 661.80565939 -272.02818045 646.66474223 -268.125 632.125 C-267.90666504 631.29282959 -267.68833008 630.46065918 -267.46337891 629.60327148 C-261.27140804 606.69560856 -250.2126211 585.60136653 -235.5625 566.94140625 C-234.18346551 565.32162978 -234.18346551 565.32162978 -234.375 563.25 C-233.81683594 563.01925781 -233.25867188 562.78851562 -232.68359375 562.55078125 C-229.76210799 560.90466491 -227.77445334 558.83926868 -225.4375 556.4375 C-224.18646484 555.15939453 -224.18646484 555.15939453 -222.91015625 553.85546875 C-222.07355469 552.99566406 -221.23695313 552.13585937 -220.375 551.25 C-198.68797696 529.39274915 -173.69251498 513.02250499 -144.375 503.25 C-144.375 502.59 -144.375 501.93 -144.375 501.25 C-143.80652344 501.20101563 -143.23804688 501.15203125 -142.65234375 501.1015625 C-137.66451876 500.61860115 -133.19622875 499.66311877 -128.375 498.25 C-121.10878667 496.62904746 -114.14963189 495.95971981 -106.71791077 495.99171448 C-105.7042579 495.98803877 -104.69060503 495.98436307 -103.64623541 495.98057598 C-100.28111281 495.97066983 -96.91615787 495.974732 -93.55102539 495.97875977 C-91.12555263 495.97436851 -88.70008138 495.9690649 -86.27461243 495.96292114 C-81.06645726 495.95145201 -75.8583299 495.94577086 -70.65016365 495.94503975 C-63.10713367 495.94370823 -55.5641771 495.92854549 -48.02117317 495.90954458 C-35.76322936 495.8787621 -23.50528369 495.85456942 -11.24731445 495.83666992 C-10.51501023 495.83559724 -9.78270601 495.83452456 -9.02821075 495.83341938 C-0.85920189 495.82160057 7.30980773 495.81139338 15.4788208 495.80297852 C18.44152834 495.79990437 21.40423586 495.79681561 24.36694336 495.79370117 C25.09804347 495.79293583 25.82914357 495.79217049 26.58239823 495.79138196 C38.79600941 495.77827646 51.00956723 495.75360653 63.22313887 495.71995777 C70.74230827 495.69973476 78.26136334 495.68936908 85.78056014 495.69194698 C91.54755039 495.69310944 97.31442425 495.67889335 103.08137703 495.65913773 C105.43873574 495.65355469 107.79611297 495.65303774 110.1534729 495.65807533 C127.36792915 495.69099451 140.05805624 494.11053596 155.625 486.25 C156.5634375 485.7859375 157.501875 485.321875 158.46875 484.84375 C184.97048001 471.13595861 204.99314643 445.85546328 215.625 418.25 C218.0349427 410.46838939 219.06343057 403.20441981 219.01268005 395.08197021 C219.01806559 394.02536611 219.02345113 392.968762 219.02899987 391.88013959 C219.0431915 388.37537469 219.03619738 384.8709922 219.02905273 381.36621094 C219.03476096 378.83870645 219.04172697 376.31120454 219.04985046 373.78370667 C219.0658934 367.65177778 219.06789212 361.51998772 219.06263756 355.38804427 C219.05858145 350.39846887 219.06005645 345.40892364 219.06538582 340.41934967 C219.06613424 339.70677655 219.06688266 338.99420344 219.06765376 338.2600372 C219.06918539 336.8120043 219.07072374 335.36397141 219.07226873 333.91593853 C219.08597044 320.3616049 219.08057301 306.80732912 219.06908352 293.25299683 C219.05915849 280.88434626 219.07208328 268.51584544 219.09601771 256.14721796 C219.12047032 243.41376554 219.13000119 230.68038269 219.12336498 217.94690728 C219.11988577 210.81144115 219.12201814 203.67609002 219.13961601 196.54064178 C219.15597116 189.82637942 219.151061 183.1124467 219.13231087 176.39817619 C219.1286418 173.94412475 219.13168391 171.49005195 219.14219666 169.03602028 C219.25258859 141.11971541 212.88387182 120.24328123 193.4375 99.625 C178.87809574 85.67862329 160.89720127 76.34605346 142.625 68.25 C141.655625 67.81042969 140.68625 67.37085937 139.6875 66.91796875 C124.67788231 60.35126101 108.81412669 56.36428101 92.88134766 52.76416016 C91.02539641 52.34123943 89.17408618 51.89800316 87.32421875 51.44921875 C79.80320504 49.62748471 72.21532334 48.12564268 64.625 46.625 C63.00428589 46.29725586 63.00428589 46.29725586 61.35083008 45.96289062 C54.86241691 44.70184128 48.50968089 43.93525217 41.91503906 43.52099609 C38.58160416 43.24642554 35.34590057 42.74910747 32.046875 42.203125 C23.00172509 40.85810271 13.9979456 40.94516755 4.875 41 C3.97547607 41.00276947 3.07595215 41.00553894 2.14916992 41.00839233 C-17.7722625 41.08017133 -37.43176913 41.92536827 -57.01513672 45.80712891 Z " fill="#274E70" transform="translate(586.375,26.75)"/>
<path d="M0 0 C17.79518141 -0.07041581 35.59032613 -0.12314639 53.38561726 -0.15543652 C61.65027364 -0.17083503 69.91484292 -0.19178843 78.17944336 -0.22631836 C85.39187551 -0.25643764 92.60424452 -0.27562581 99.81673783 -0.28226548 C103.62753676 -0.28614006 107.4381552 -0.29509481 111.24889565 -0.31719017 C150.70360152 -0.53682004 185.44130885 5.98478203 214.5546875 34.56298828 C215.03164062 35.03720215 215.50859375 35.51141602 216 36 C216.47179688 36.46776855 216.94359375 36.93553711 217.4296875 37.41748047 C225.15568641 45.18883227 231.23522397 53.70667696 237 63 C237.67675781 64.06347656 238.35351562 65.12695312 239.05078125 66.22265625 C266.68029321 111.79197157 275.99091654 171.79070121 282 224 C282.11714355 224.99128906 282.23428711 225.98257813 282.35498047 227.00390625 C285.57730511 255.46378389 285.62612084 285.58224861 282 314 C281.87109375 315.02480469 281.7421875 316.04960938 281.609375 317.10546875 C274.30006608 373.21118259 255.33285251 444.4849726 217 488 C216.25878906 488.84949219 215.51757812 489.69898438 214.75390625 490.57421875 C212.53321456 493.07951848 210.27589332 495.54486966 208 498 C207.46117187 498.60457031 206.92234375 499.20914062 206.3671875 499.83203125 C187.93822879 519.60380354 159.12279369 530.11632001 132.56196213 531.0893116 C130.05814068 531.12147196 127.55624891 531.12397264 125.05224609 531.11352539 C124.11444305 531.11367142 123.17664001 531.11381744 122.2104187 531.1139679 C119.14806709 531.11327798 116.08577832 531.10552924 113.0234375 531.09765625 C110.88538649 531.09578879 108.74733504 531.09436644 106.60928345 531.09336853 C101.00997719 531.08956917 95.41069729 531.07976117 89.81140137 531.06866455 C84.08651079 531.05839469 78.36161591 531.05385901 72.63671875 531.04882812 C61.42446765 531.03813637 50.21223603 531.02109127 39 531 C39.00666183 532.18555984 39.01332367 533.37111969 39.02018738 534.59260559 C39.08138499 545.84450824 39.12615635 557.09637649 39.15543652 568.3484087 C39.17099646 574.13118822 39.19205492 579.91383185 39.22631836 585.6965332 C39.25926064 591.29220068 39.27692542 596.88773864 39.28463173 602.48349571 C39.29011338 604.602994 39.30081455 606.72248637 39.31719017 608.84192848 C39.5872009 645.28593551 29.82293583 676.3051966 4.19140625 702.83984375 C-22.24683066 729.40900353 -57.09323384 744.86403497 -92 757 C-92.85803223 757.29890137 -93.71606445 757.59780273 -94.60009766 757.90576172 C-133.72528046 771.33655267 -177.29151498 780.0218649 -218.74609375 780.203125 C-219.82729996 780.21013931 -220.90850616 780.21715363 -222.0224762 780.22438049 C-225.49419369 780.24178832 -228.96574045 780.24823334 -232.4375 780.25 C-234.21918579 780.25101212 -234.21918579 780.25101212 -236.03686523 780.25204468 C-253.90191275 780.23591827 -271.3186157 779.732723 -289 777 C-290.16144531 776.82839355 -291.32289063 776.65678711 -292.51953125 776.47998047 C-325.266279 771.56005422 -358.34758751 763.7452241 -389 751 C-389.75909668 750.68482422 -390.51819336 750.36964844 -391.30029297 750.04492188 C-414.57704626 740.24907521 -435.71010106 727.53161126 -454 710 C-454.89074219 709.17242188 -455.78148437 708.34484375 -456.69921875 707.4921875 C-472.39223383 692.47767098 -482.99099822 673.80224712 -489 653 C-489.33128906 651.97132813 -489.66257812 650.94265625 -490.00390625 649.8828125 C-492.72711512 640.18154178 -493.29374803 630.2604016 -493.24291992 620.24145508 C-493.24478711 619.02860557 -493.2466543 617.81575605 -493.24857807 616.56615353 C-493.25157082 613.24768013 -493.24565508 609.92945616 -493.23558044 606.61101246 C-493.22684059 603.03504874 -493.22955045 599.45908943 -493.23059082 595.88311768 C-493.23061501 588.93520235 -493.21930504 581.98735109 -493.20333564 575.03945577 C-493.19046574 569.41228182 -493.1811901 563.78511271 -493.17422485 558.15792847 C-493.14692423 536.71308992 -493.09020157 515.26842573 -493.01635742 493.82369995 C-493.00280271 489.86731211 -492.99015736 485.91092206 -492.97788256 481.95453006 C-492.92202354 463.96848195 -492.84600068 445.98271089 -492.73452759 427.99691772 C-492.70207323 422.73457911 -492.67563128 417.47226491 -492.65438843 412.20986938 C-492.62876315 406.04187809 -492.58853907 399.87414937 -492.53700256 393.70632172 C-492.52050124 391.47351893 -492.50872804 389.24067474 -492.50233459 387.00782013 C-492.45245824 371.29301176 -491.59768778 355.97764406 -486.375 341 C-486.12121582 340.26346191 -485.86743164 339.52692383 -485.60595703 338.76806641 C-471.96281154 300.85966985 -439.4278059 271.07562458 -403.63427734 254.16162109 C-385.06922138 245.97510244 -366.90600746 244.70383388 -346.8762207 244.72875977 C-344.5375297 244.72436725 -342.19884026 244.71906319 -339.8601532 244.71292114 C-334.84136818 244.70145992 -329.82262517 244.69596457 -324.80382729 244.69503975 C-317.52918979 244.69325614 -310.25461869 244.67852719 -302.98000982 244.65954458 C-291.14984995 244.62877036 -279.31968815 244.60457576 -267.48950195 244.58666992 C-266.42974858 244.5850609 -266.42974858 244.5850609 -265.34858605 244.58341938 C-257.47329817 244.5716089 -249.59800951 244.56140085 -241.72271729 244.55297852 C-238.86926267 244.54990451 -236.01580808 244.5468157 -233.16235352 244.54370117 C-232.10618191 244.54255316 -232.10618191 244.54255316 -231.02867351 244.54138196 C-219.24554026 244.52825434 -207.46246205 244.50355262 -195.67936963 244.46995777 C-187.79116604 244.44800015 -179.90307938 244.44011453 -172.01484549 244.44235051 C-167.08974116 244.44067393 -162.16472784 244.42656528 -157.23965645 244.40913773 C-154.97147539 244.40357797 -152.70327515 244.40301589 -150.43509293 244.40807533 C-133.86486204 244.44113659 -118.28266978 243.33261866 -102.5 237.875 C-101.62400146 237.5756958 -100.74800293 237.2763916 -99.84545898 236.96801758 C-81.84680743 230.57687279 -66.2385484 220.27343244 -52.38671875 207.23046875 C-50.43597985 205.4074378 -48.45855345 203.72648205 -46.375 202.0625 C-41.5807183 197.98736056 -37.8503478 192.943976 -34 188 C-33.24332031 187.03578125 -32.48664063 186.0715625 -31.70703125 185.078125 C-13.64968445 161.58181832 -0.95648041 135.2994961 -0.79467773 105.3515625 C-0.78477814 104.20922653 -0.77487854 103.06689056 -0.76467896 101.88993835 C-0.73323145 98.13497959 -0.70837302 94.38000819 -0.68359375 90.625 C-0.66300975 88.01326173 -0.64201291 85.40152669 -0.62062073 82.78979492 C-0.5708706 76.63124917 -0.52586682 70.47267839 -0.48259836 64.31408405 C-0.43307407 57.29828307 -0.37821269 50.28252693 -0.32291877 43.26676941 C-0.20937044 28.84455545 -0.10247317 14.42229685 0 0 Z M40 41 C39.98969254 41.95720444 39.97938507 42.91440887 39.96876526 43.90061951 C39.87074957 52.94830363 39.76799068 61.99592329 39.66066074 71.04350185 C39.60564003 75.69426176 39.55225498 80.34502815 39.50268555 84.99584961 C39.45473242 89.48925422 39.40238143 93.98258857 39.34705925 98.47590828 C39.32677499 100.18497007 39.30804027 101.89405103 39.29092598 103.60314751 C38.78360581 153.69979329 14.59289918 198.16105957 -20.6484375 232.796875 C-40.11471896 251.03438787 -63.18580473 264.49587154 -88 274 C-88.65564941 274.25120605 -89.31129883 274.50241211 -89.98681641 274.76123047 C-97.40474277 277.54271158 -104.89641441 279.56572258 -112.625 281.25 C-113.36427734 281.41338867 -114.10355469 281.57677734 -114.86523438 281.74511719 C-128.74458825 284.58765735 -142.966957 284.15098901 -157.05981445 284.15771484 C-159.27219746 284.16239128 -161.48457952 284.1675362 -163.69696045 284.17311096 C-168.43961304 284.1843336 -173.18225957 284.19279558 -177.92492104 284.19923019 C-185.43688372 284.2099746 -192.9488024 284.23023529 -200.46073914 284.25234985 C-211.00271154 284.28281583 -221.54468518 284.31205468 -232.08666992 284.33789062 C-233.08765152 284.3403479 -233.08765152 284.3403479 -234.10885497 284.34285481 C-244.91894422 284.36913151 -255.72903683 284.38778527 -266.53914449 284.40448253 C-277.67707338 284.42196206 -288.8149404 284.45105203 -299.95281762 284.4893719 C-306.19062832 284.5103612 -312.42834515 284.52588779 -318.66619301 284.52817917 C-324.53586833 284.53033821 -330.40534783 284.54633493 -336.27496338 284.57256889 C-338.41778163 284.57971407 -340.56062372 284.58188634 -342.70345116 284.57846642 C-361.11738479 284.55379076 -376.92254324 286.79198254 -394 294 C-394.90234375 294.37898437 -395.8046875 294.75796875 -396.734375 295.1484375 C-411.64047671 302.01693535 -424.86532622 313.43639348 -434 327 C-434.62003906 327.54914063 -435.24007812 328.09828125 -435.87890625 328.6640625 C-438.8154889 331.89808906 -440.29007569 335.44905903 -442 339.4375 C-442.34957764 340.24517822 -442.69915527 341.05285645 -443.05932617 341.88500977 C-451.97599976 362.84179383 -453.45483959 383.26814598 -453.328125 405.8046875 C-453.32559567 408.23968409 -453.32433547 410.67468227 -453.32423401 413.10968018 C-453.32021444 418.98969068 -453.30192045 424.86954594 -453.27585572 430.74949026 C-453.25480207 435.53576583 -453.23913919 440.32203078 -453.22714233 445.1083374 C-453.22362352 446.49661954 -453.22010414 447.88490168 -453.21658421 449.27318382 C-453.21483256 449.96453761 -453.2130809 450.65589139 -453.21127617 451.3681953 C-453.17746092 464.38525236 -453.12353441 477.40216865 -453.06350148 490.41912723 C-453.00944121 502.28409284 -452.98175449 514.14895029 -452.9663651 526.01402354 C-452.95023232 538.25171539 -452.91557092 550.48923155 -452.86148643 562.72681618 C-452.83155228 569.57553806 -452.80871812 576.4240967 -452.80554199 583.27288818 C-452.80235153 589.71484579 -452.77300323 596.15637238 -452.72681999 602.59816742 C-452.7138945 604.94773 -452.70918522 607.29735612 -452.71377754 609.64694977 C-452.75288985 635.17281928 -447.77600998 657.80820161 -430 677 C-429.04673828 678.05574219 -429.04673828 678.05574219 -428.07421875 679.1328125 C-399.10950245 709.71667443 -353.49676133 721.72109252 -314 731 C-313.19224121 731.19335938 -312.38448242 731.38671875 -311.55224609 731.5859375 C-256.34140988 744.57949179 -198.94517819 740.83221611 -144 729 C-142.8548291 728.75378906 -141.7096582 728.50757813 -140.52978516 728.25390625 C-94.62815119 718.13138426 -39.35966468 699.03949701 -12 658 C9.93421584 620.26571343 -2 569.48481624 -2 530 C-84.83 530 -167.66 530 -253 530 C-253 516.47 -253 502.94 -253 489 C-250.1628389 489.02898376 -247.3256778 489.05796753 -244.40254211 489.08782959 C-169.92871757 489.83959004 -95.45930707 490.21480385 -20.98182487 490.23744965 C-18.02214431 490.23836807 -15.06246376 490.23929473 -12.1027832 490.24023438 C-11.00242627 490.24057064 -11.00242627 490.24057064 -9.87983991 490.24091369 C2.27414878 490.24494574 14.42808085 490.2627563 26.58204726 490.2855939 C39.33127711 490.30934592 52.08047792 490.32176856 64.82973021 490.32293582 C71.88371575 490.3238412 78.93762315 490.32931622 85.99158669 490.34775543 C92.53235713 490.36481532 99.07300455 490.36638319 105.61380005 490.35761642 C107.99173575 490.35685041 110.3696798 490.36113067 112.74759483 490.37107468 C136.81196113 490.78072494 136.81196113 490.78072494 159.375 483.375 C160.02799072 483.02872559 160.68098145 482.68245117 161.35375977 482.32568359 C182.39890822 470.76184664 195.2826504 450.24520975 205 429 C205.34885254 428.24041992 205.69770508 427.48083984 206.05712891 426.69824219 C215.81165134 405.22690453 223.41107138 382.81361464 230.30224609 360.27880859 C230.9165441 358.2725603 231.54505417 356.27067532 232.17578125 354.26953125 C236.35714816 340.4984657 238.61227899 326.21805078 240.6875 312 C240.80681885 311.18909912 240.9261377 310.37819824 241.04907227 309.54272461 C242.93291843 296.05340532 243.24102903 282.59664106 243.25 269 C243.25067474 268.074151 243.25134949 267.148302 243.25204468 266.19439697 C243.23335252 249.94619333 242.26557487 234.1065426 240 218 C239.83371094 216.76266113 239.66742187 215.52532227 239.49609375 214.25048828 C233.28564798 168.65546555 224.84725413 113.11188716 196 76 C195.57138672 75.44554199 195.14277344 74.89108398 194.70117188 74.31982422 C179.66440276 55.12650731 161.2672633 44.36770185 137 41 C129.35579484 40.37401611 121.68581226 40.52979155 114.0234375 40.609375 C111.87440524 40.61685686 109.72536605 40.62254056 107.57632446 40.62652588 C101.98352444 40.64162927 96.3911554 40.68077499 90.79852295 40.7253418 C85.06626206 40.76662887 79.33392996 40.78460754 73.6015625 40.8046875 C62.40085472 40.84728749 51.20046352 40.91534796 40 41 Z " fill="#BA9300" transform="translate(846,318)"/>
<path d="M0 0 C0.26308722 34.10015108 -3.65656914 65.90493766 -15.01464844 98.19287109 C-16.1811983 101.51620865 -17.32763359 104.84631169 -18.4765625 108.17578125 C-40.0732479 170.44614264 -40.0732479 170.44614264 -55.875 178.75 C-57.55609731 179.55920616 -59.27038056 180.30048632 -61 181 C-61.56464116 181.24971809 -62.12928232 181.49943619 -62.71103382 181.7567215 C-70.06813519 184.65647186 -77.36745072 184.38687533 -85.16479492 184.31054688 C-86.75801368 184.30635348 -88.35123647 184.30352158 -89.94445992 184.30189514 C-93.47981303 184.29523262 -97.01494641 184.27868849 -100.55022621 184.25502014 C-106.50474741 184.21528038 -112.45923972 184.19702564 -118.41386414 184.18054199 C-127.79677082 184.15238077 -137.17959184 184.11330749 -146.56243896 184.06982422 C-164.1324878 183.98977013 -181.70259863 183.94493324 -199.27276912 183.90102243 C-207.19243697 183.88113647 -215.11210294 183.86050355 -223.0317688 183.83984375 C-224.37135771 183.83635622 -224.37135771 183.83635622 -225.73800902 183.83279824 C-247.0070023 183.77724846 -268.27596227 183.71160842 -289.54492188 183.64453125 C-290.47834322 183.64159073 -291.41176457 183.63865022 -292.37347141 183.63562059 C-300.91922409 183.60869759 -309.46497656 183.5817084 -318.01072872 183.55462074 C-331.61904827 183.51150725 -345.22737 183.46913811 -358.83569336 183.42724609 C-359.8059296 183.4242591 -360.77616584 183.4212721 -361.77580319 183.41819459 C-366.64732988 183.40320069 -371.51885661 183.38821861 -376.39038336 183.37324238 C-416.26026144 183.25065788 -456.13013192 183.12580306 -496 183 C-496 223.92 -496 264.84 -496 307 C-413.17 307 -330.34 307 -245 307 C-245 363 -245 363 -251 373 C-253.875 375.625 -253.875 375.625 -256 377 C-256.01417969 376.06800781 -256.02835938 375.13601563 -256.04296875 374.17578125 C-256.6074752 359.08667628 -261.10727546 347.27960812 -272.25 336.75 C-283.55905669 327.52283784 -297.07164433 326.78243961 -311 328 C-321.82101976 330.52151244 -330.9722341 337.50963183 -337.42578125 346.4453125 C-344.35386937 357.68841332 -345.68895051 369.13704475 -343.48828125 381.98828125 C-339.60926593 396.40566188 -330.64537965 405.68260129 -318 413 C-321.41588431 415.27725621 -324.78888363 416.2647032 -328.6875 417.375 C-329.44716064 417.59414063 -330.20682129 417.81328125 -330.98950195 418.0390625 C-337.88311826 420.00642039 -344.81056799 421.80909897 -351.78466797 423.46875 C-353.32170109 423.83733982 -354.85708979 424.2128285 -356.39111328 424.59375 C-367.64451099 427.38583162 -378.89744118 429.58873375 -390.375 431.25 C-391.49036133 431.41306641 -392.60572266 431.57613281 -393.75488281 431.74414062 C-441.09554459 438.26718696 -489.46565621 433.0575155 -535 419 C-536.22178955 418.6275415 -536.22178955 418.6275415 -537.46826172 418.24755859 C-560.63767956 411.10674838 -593.42438494 400.47789185 -606.7890625 378.4609375 C-611.0312501 369.83971753 -613.08119551 360.9999163 -613.1942749 351.42340088 C-613.21154633 350.11699646 -613.22881775 348.81059204 -613.24661255 347.46459961 C-613.26061455 346.02881031 -613.27443288 344.59301922 -613.28808594 343.15722656 C-613.30582476 341.63563745 -613.32382679 340.11405139 -613.34207153 338.59246826 C-613.50074477 324.73077305 -613.58537645 310.86812015 -613.65206528 297.0057106 C-613.70231812 286.76877512 -613.78832578 276.53343957 -613.92068648 266.29723001 C-614.01076759 259.08685436 -614.05852479 251.87691728 -614.07564378 244.66600394 C-614.08708644 240.36460213 -614.11722583 236.06525298 -614.19359589 231.76447296 C-614.26473166 227.71545629 -614.28320196 223.66949748 -614.26247787 219.61994171 C-614.26389908 218.14043952 -614.28393777 216.66081024 -614.32471848 215.18186951 C-614.48804713 208.93408702 -614.56558539 204.00258332 -610.61492157 198.9491806 C-607.85340337 196.40706898 -605.05341108 194.17801447 -602 192 C-600.58567352 190.87239837 -599.17449571 189.74080773 -597.76953125 188.6015625 C-596.45473424 187.60379833 -595.13567935 186.61162097 -593.8125 185.625 C-593.09400879 185.08319092 -592.37551758 184.54138184 -591.63525391 183.9831543 C-590.15287705 182.86626615 -588.6688383 181.75158014 -587.18310547 180.63916016 C-585.07344468 179.05514511 -582.97478025 177.45766362 -580.87890625 175.85546875 C-572.14629923 169.20154885 -563.22829287 162.94570136 -554 157 C-553.2584668 156.52030762 -552.51693359 156.04061523 -551.75292969 155.54638672 C-486.19844757 113.2527339 -413.36158385 86.72287003 -336 77 C-335.22317871 76.90090332 -334.44635742 76.80180664 -333.64599609 76.69970703 C-324.60346268 75.57200518 -315.56926269 74.84684813 -306.46484375 74.46875 C-305.44137848 74.42624115 -304.41791321 74.3837323 -303.36343384 74.3399353 C-291.07330281 73.87178426 -278.77813516 73.80262666 -266.48100853 73.6904974 C-239.90732768 73.44157611 -213.42143396 73.11552944 -187 70 C-186.1564093 69.90160828 -185.3128186 69.80321655 -184.44366455 69.70184326 C-141.8555523 64.68913918 -99.64189197 56.33582542 -61 37 C-60.0212793 36.51805176 -59.04255859 36.03610352 -58.03417969 35.53955078 C-39.73942656 26.48807641 -23.05968168 16.16635886 -6.94702148 3.65600586 C-2.20484215 0 -2.20484215 0 0 0 Z " fill="#FFD22F" transform="translate(1048,583)"/>
<path d="M0 0 C0.09388771 14.97850424 0.16419507 29.95698548 0.20724869 44.93572235 C0.22778016 51.89230754 0.2557178 58.84870877 0.30175781 65.80517578 C0.34623672 72.5290324 0.36919371 79.25265927 0.37950897 85.97666931 C0.38685226 88.53127534 0.4011908 91.08587195 0.42292023 93.64039612 C0.55970692 110.4003692 0.39189848 126.23483268 -7.75 141.375 C-8.09361572 142.03508057 -8.43723145 142.69516113 -8.79125977 143.37524414 C-11.89048065 149.14525798 -15.57364981 154.16740735 -20 159 C-20.66386719 159.76699219 -21.32773437 160.53398437 -22.01171875 161.32421875 C-29.61110567 169.59785811 -40.71600491 177.21942815 -52.18255532 178.18350303 C-54.7127854 178.25869251 -57.23577322 178.26955105 -59.7671051 178.25828552 C-60.73353264 178.26196123 -61.69996018 178.26563693 -62.69567341 178.26942402 C-65.92550631 178.2793825 -69.15516631 178.27525728 -72.38500977 178.27124023 C-74.7049986 178.27562888 -77.02498586 178.28093154 -79.3449707 178.28707886 C-84.33982366 178.29857513 -89.33463422 178.30403806 -94.3295002 178.30496025 C-101.57510993 178.30673986 -108.82064036 178.32144531 -116.06622349 178.34045542 C-127.85460498 178.37128558 -139.64298841 178.39545013 -151.43139648 178.41333008 C-152.13642407 178.41440276 -152.84145167 178.41547544 -153.56784373 178.41658062 C-161.41392049 178.4283727 -169.25999803 178.43858048 -177.1060791 178.44702148 C-179.94173179 178.45009489 -182.77738446 178.45318381 -185.61303711 178.45629883 C-186.66245812 178.45744684 -186.66245812 178.45744684 -187.73307956 178.45861804 C-199.46070805 178.47176766 -211.18828152 178.49650585 -222.91586918 178.53004223 C-230.76505558 178.55168021 -238.61410005 178.55988922 -246.46331418 178.55764949 C-251.37883041 178.55933183 -256.29425631 178.57347627 -261.20973969 178.59086227 C-263.46614097 178.59640045 -265.72256149 178.59700469 -267.97896385 178.59192467 C-286.86357656 178.55391262 -305.31996887 180.14504396 -323.6875 184.75 C-324.72511475 185.00604004 -325.76272949 185.26208008 -326.83178711 185.52587891 C-341.63206784 189.30075257 -355.50173013 194.71486311 -368.96240234 201.91113281 C-370.35452401 202.65506555 -371.75091258 203.39105413 -373.15087891 204.12011719 C-389.21198987 212.49273782 -403.82931864 222.54458036 -417 235 C-418.32844855 236.15149305 -419.66165404 237.29752548 -421 238.4375 C-462.01711825 274.33779465 -487.21683144 328.98327991 -491 383 C-491.65074078 396.32052811 -491.820964 409.66626943 -492 423 C-499.13065571 423.1536947 -506.26087565 423.25785431 -513.39282227 423.32958984 C-515.81258097 423.35953297 -518.23223332 423.40030271 -520.65161133 423.45263672 C-538.94707386 423.83812261 -554.78570268 423.02766859 -569 410 C-599.79110099 375.95269723 -606.48870375 313.73137801 -611 270 C-611.0928125 269.19739746 -611.185625 268.39479492 -611.28125 267.56787109 C-612.26323884 257.90876611 -612.15084005 248.22539197 -612.13037109 238.52783203 C-612.12501204 235.50678489 -612.13034214 232.48588638 -612.13671875 229.46484375 C-612.14098792 223.97545801 -612.08426164 218.48865305 -612 213 C-611.98960693 211.72455322 -611.97921387 210.44910645 -611.96850586 209.13500977 C-611.79328444 204.54987237 -611.66131843 201.12153042 -608.55078125 197.58984375 C-607.49974649 196.67215788 -606.41824085 195.78847509 -605.3125 194.9375 C-604.72799072 194.44548096 -604.14348145 193.95346191 -603.54125977 193.4465332 C-601.71978337 191.92924361 -599.86512705 190.46311723 -598 189 C-596.90758635 188.11093052 -595.81639977 187.22035078 -594.7265625 186.328125 C-591.86300494 184.01151981 -588.95216145 181.76346947 -586.01953125 179.53515625 C-584.59975251 178.45590471 -583.18338186 177.37216223 -581.76953125 176.28515625 C-569.20325226 166.62677653 -556.3280777 157.57583298 -543 149 C-541.72237793 148.17653076 -541.72237793 148.17653076 -540.41894531 147.33642578 C-492.49915389 116.63239814 -440.3414714 94.68252784 -385.02099609 81.72167969 C-381.96086165 80.99065032 -378.91223213 80.22155075 -375.86328125 79.4453125 C-365.35930271 76.82207961 -354.85715844 75.25651528 -344.125 73.9375 C-342.02190356 73.67762909 -339.91896775 73.41664767 -337.81637573 73.15272522 C-335.92495482 72.91546984 -334.03304669 72.68210801 -332.14111328 72.44897461 C-329.6764344 72.09668606 -327.40413819 71.6039846 -325 71 C-304.90122222 68.59215973 -284.45386148 68.76920224 -264.25 68.5 C-242.43872348 68.20310936 -220.75216174 67.64177482 -199 66 C-197.61643348 65.90311378 -196.23280552 65.80710156 -194.84912109 65.71191406 C-176.77054579 64.4563469 -159.03495724 62.30733752 -141.21313477 58.98144531 C-132.7494948 57.42933026 -124.63402232 56.62176538 -116 57 C-116 56.01 -116 55.02 -116 54 C-115.29842773 53.81526123 -114.59685547 53.63052246 -113.87402344 53.44018555 C-73.88943787 42.78345805 -36.79993702 26.4093151 -3.421875 1.73046875 C-1 0 -1 0 0 0 Z " fill="#3672A4" transform="translate(764,302)"/>
<path d="M0 0 C0.87577698 -0.00517639 1.75155396 -0.01035278 2.65386963 -0.01568604 C12.1755174 -0.06009109 21.33055094 0.21966099 30.74169922 1.76416016 C34.13335798 2.31191222 37.50212765 2.61435715 40.92456055 2.8828125 C52.26047468 3.78293471 63.15494011 6.06414254 74.21118164 8.65698242 C76.57779495 9.20977632 78.94740738 9.74449264 81.3203125 10.26953125 C82.41267212 10.51147217 82.41267212 10.51147217 83.52709961 10.75830078 C85.03957778 11.09285663 86.55211252 11.4271568 88.06469727 11.76123047 C105.73344733 15.70128756 123.46770385 20.18276637 139.75 28.25 C141.34603682 28.98011303 142.94389107 29.70625876 144.54296875 30.4296875 C160.14938736 37.55642465 173.84795884 45.86952428 186.75 57.25 C187.45511719 57.87132812 188.16023437 58.49265625 188.88671875 59.1328125 C205.69665002 74.91895621 213.72546319 96.07929584 214.60807896 118.75030804 C214.69259035 121.51702181 214.75500654 124.28330096 214.80859375 127.05078125 C214.82864031 128.01635641 214.84868687 128.98193157 214.8693409 129.97676659 C214.96950034 135.08197978 215.04223947 140.18681957 215.09545898 145.29272461 C215.14437973 149.4704421 215.24890396 153.64102512 215.40307617 157.81616211 C216.79038224 196.23380418 216.79038224 196.23380418 207.14613342 206.90519714 C203.93129617 209.83516087 200.64562995 212.41515452 196.99861145 214.78445435 C193.97458873 216.75537883 191.38749981 219.04745371 188.6875 221.4375 C187.04738834 222.71570909 185.40168981 223.98678763 183.75 225.25 C181.87336383 226.76881391 179.99832312 228.2896016 178.125 229.8125 C173.87670565 233.25 173.87670565 233.25 172.75 233.25 C172.74668985 232.63653811 172.74337971 232.02307623 172.73996925 231.39102459 C172.65854359 216.42413722 172.56638812 201.45735699 172.46247292 186.49061108 C172.41247449 179.25263238 172.36603079 172.01466429 172.328125 164.77661133 C172.29505482 158.46366781 172.25514217 152.15080981 172.20720994 145.83796102 C172.18209317 142.49920636 172.16129058 139.16056417 172.14665604 135.82173729 C172.12968734 132.08310189 172.10062654 128.34473609 172.06884766 124.60620117 C172.06668747 123.51430984 172.06452728 122.42241852 172.06230164 121.29743958 C172.03154016 107.61879339 172.03154016 107.61879339 165.9375 95.875 C164.85662109 94.64523438 164.85662109 94.64523438 163.75390625 93.390625 C163.09261719 92.68421875 162.43132813 91.9778125 161.75 91.25 C160.96625 90.38375 160.1825 89.5175 159.375 88.625 C158.50875 87.84125 157.6425 87.0575 156.75 86.25 C156.15960937 85.693125 155.56921875 85.13625 154.9609375 84.5625 C111.32746889 46.32539677 30.9602261 38.65220315 -24.4375 41.8125 C-54.92750227 43.91284459 -85.07936212 50.26472829 -114.25 59.25 C-114.25 59.91 -114.25 60.57 -114.25 61.25 C-112.69221518 62.55696338 -112.69221518 62.55696338 -110.6875 63.875 C-101.61888522 70.50822706 -94.85597761 79.76150588 -92.53515625 90.9375 C-90.76164446 105.31995177 -93.74293624 117.49923568 -102.25 129.25 C-109.9252793 138.49645412 -120.26948581 144.02749855 -132.25 145.25 C-145.83552294 146.00870285 -157.01799206 142.94396182 -167.5 134.0625 C-172.17552282 129.64387404 -175.41520323 125.00435491 -178.25 119.25 C-178.56582031 118.61707031 -178.88164062 117.98414063 -179.20703125 117.33203125 C-181.94691188 111.0019622 -182.43959716 104.03831552 -183.25 97.25 C-184.36561831 98.42674808 -185.46689898 99.61709267 -186.5625 100.8125 C-187.48482422 101.80443359 -187.48482422 101.80443359 -188.42578125 102.81640625 C-201.63887705 120.44329851 -193.96683937 152.39300457 -194.25 168.25 C-111.42 168.25 -28.59 168.25 56.75 168.25 C56.75 208.84 56.75 249.43 56.75 291.25 C50.48 291.91 44.21 292.57 37.75 293.25 C34.40049581 293.71520892 31.0806301 294.18976462 27.75 294.75 C26.65751953 294.92595703 26.65751953 294.92595703 25.54296875 295.10546875 C22.52573025 295.59689288 19.51682905 296.08924854 16.52441406 296.71655273 C7.28617652 298.5983135 -2.089263 299.26060598 -11.46972656 300.05493164 C-14.45187933 300.30840982 -17.43294797 300.57251317 -20.4140625 300.83789062 C-42.55468436 302.77180682 -64.64170424 303.36725755 -86.85848999 303.63760376 C-116.44046 304.01689845 -145.54781271 304.55672686 -174.74609375 309.80810547 C-177.94697841 310.37300419 -181.15818158 310.8479352 -184.375 311.3125 C-204.57869188 314.41664339 -224.77628368 319.03303892 -244.25 325.25 C-245.24128906 325.56453125 -246.23257813 325.8790625 -247.25390625 326.203125 C-262.89108223 331.19807513 -278.20484984 336.67846273 -293.25 343.25 C-294.1884375 343.65943848 -295.126875 344.06887695 -296.09375 344.49072266 C-347.4759605 367.09993121 -396.49113167 397.43384095 -437.66015625 435.83984375 C-439.80320585 437.83420514 -441.97146991 439.77554057 -444.1875 441.6875 C-454.34620705 450.53741657 -463.96812892 459.86106979 -473.42138672 469.45825195 C-474.16404785 470.20937256 -474.90670898 470.96049316 -475.671875 471.734375 C-476.67105957 472.75096191 -476.67105957 472.75096191 -477.69042969 473.78808594 C-479.25 475.25 -479.25 475.25 -480.25 475.25 C-482.0335797 408.59696605 -462.32320965 319.50541963 -414.9375 269.4375 C-399.04308229 253.99398776 -380.28373618 249.75819348 -358.7225647 249.88923645 C-357.09768345 249.88792528 -355.47280282 249.88529316 -353.84792554 249.88146895 C-349.42145812 249.87481315 -344.99521163 249.88668835 -340.56877232 249.90180314 C-335.78097142 249.91483069 -330.99318169 249.91036931 -326.20536804 249.90809631 C-317.9229401 249.90652781 -309.64058339 249.91589269 -301.35817337 249.93280983 C-289.3833992 249.95725276 -277.40865926 249.96501051 -265.43386285 249.9687738 C-246.00276407 249.97533 -226.57170321 249.99526855 -207.140625 250.02368164 C-188.27181182 250.05124377 -169.40300895 250.0724668 -150.53417969 250.08520508 C-148.78782397 250.08638733 -148.78782397 250.08638733 -147.00618835 250.08759347 C-141.16520543 250.09150875 -135.32422245 250.09529984 -129.48323941 250.09902918 C-81.07213202 250.13009918 -32.66107095 250.18374137 15.75 250.25 C15.75 236.72 15.75 223.19 15.75 209.25 C-67.08 209.25 -149.91 209.25 -235.25 209.25 C-235.25 88.29317973 -235.25 88.29317973 -215.71508789 68.72021484 C-214.67360822 67.6750906 -213.64544505 66.61662208 -212.62670898 65.54931641 C-208.50875152 61.28968208 -204.17740556 57.74750921 -199.3125 54.375 C-198.57306152 53.8596167 -197.83362305 53.3442334 -197.07177734 52.81323242 C-177.71677367 39.52751964 -156.27439988 30.15274084 -134.25 22.25 C-133.54858887 21.99734375 -132.84717773 21.7446875 -132.12451172 21.484375 C-123.91051152 18.55588768 -115.63558728 16.23096867 -107.1640625 14.2109375 C-103.61444 13.35937356 -100.12851885 12.33812027 -96.625 11.3125 C-85.19107935 8.21530308 -73.37049105 6.67063467 -61.68505859 4.81494141 C-58.62077085 4.31097823 -55.57354678 3.75437055 -52.5234375 3.171875 C-35.2517972 0.00076129 -17.50399472 0.04752998 0 0 Z " fill="#779FC0" transform="translate(591.25,67.75)"/>
<path d="M0 0 C0.33 0 0.66 0 1 0 C2.88474396 14.37117269 3.22177921 28.6519049 3.25 43.125 C3.25749268 44.44525177 3.25749268 44.44525177 3.26513672 45.79217529 C3.32486354 58.64687938 2.54614243 71.23973295 1 84 C0.85933105 85.17852539 0.71866211 86.35705078 0.57373047 87.57128906 C-4.43380144 126.83279688 -17.5388685 166.06145297 -34 202 C-34.34724121 202.75941895 -34.69448242 203.51883789 -35.05224609 204.30126953 C-45.19248793 226.15632491 -58.87070878 246.79217229 -80.625 258.375 C-81.2027417 258.69702393 -81.7804834 259.01904785 -82.37573242 259.35083008 C-96.981841 266.63172763 -114.93577143 265.42258058 -130.75073242 265.35644531 C-133.21199618 265.35723817 -135.67325981 265.3593415 -138.13452148 265.36264038 C-144.11486327 265.36722653 -150.09503678 265.35798508 -156.07534768 265.34235242 C-163.16480607 265.3245073 -170.25424175 265.32338591 -177.34371904 265.32273683 C-190.13908498 265.32104891 -202.93439447 265.30529276 -215.72973633 265.28125 C-227.85409006 265.25848725 -239.97840828 265.24393949 -252.1027832 265.24023438 C-252.83614383 265.24000155 -253.56950445 265.23976872 -254.32508813 265.23952883 C-257.28227343 265.23859583 -260.23945874 265.23767537 -263.19664406 265.2367762 C-339.80209878 265.21212945 -416.39845154 264.78254324 -493 264 C-493 277.53 -493 291.06 -493 305 C-410.17 305 -327.34 305 -242 305 C-242 421.78228782 -242 421.78228782 -258 441 C-258.67804688 441.82886719 -259.35609375 442.65773438 -260.0546875 443.51171875 C-286.23529952 474.05576611 -327.37661336 488.51793247 -365 499 C-366.67582213 499.485536 -368.35160742 499.9711992 -370.02734375 500.45703125 C-382.42871964 503.9353736 -394.96305261 506.4486987 -407.625 508.75 C-408.42863983 508.89861481 -409.23227966 509.04722961 -410.06027222 509.2003479 C-430.89057429 513.02707002 -451.45788191 514.41264619 -472.625 514.375 C-474.28444641 514.37468277 -474.28444641 514.37468277 -475.97741699 514.37435913 C-502.56163238 514.32396138 -528.38837654 512.07075141 -554.25439453 505.66650391 C-557.12892536 504.96870298 -560.01235636 504.32977002 -562.90234375 503.69921875 C-604.79013831 494.3885904 -653.53048063 478.11137058 -679 441 C-690.64220835 422.24486635 -692.74967676 402.85098754 -692.70703125 381.1953125 C-692.72029932 378.75943315 -692.73568053 376.32356455 -692.75299072 373.88771057 C-692.78917351 368.00701479 -692.80278985 362.12653155 -692.80572832 356.24574989 C-692.81031312 349.38640998 -692.84309608 342.52728268 -692.87646568 335.668033 C-692.95267096 319.69098238 -692.97905122 303.71399378 -692.99347454 287.73678476 C-692.99826242 282.47517562 -693.00481869 277.21357108 -693.01245117 271.95196533 C-693.06821897 233.30120118 -693.0666145 194.6507617 -693 156 C-692.67 156 -692.34 156 -692 156 C-691.67 196.59 -691.34 237.18 -691 279 C-685.72 273.72 -680.44 268.44 -675 263 C-672.36 260.69 -669.72 258.38 -667 256 C-665.64838747 254.76122784 -664.30335243 253.51512017 -662.97265625 252.25390625 C-662.32619141 251.64482422 -661.67972656 251.03574219 -661.01367188 250.40820312 C-659.68480877 249.15117045 -658.35671389 247.89332527 -657.02929688 246.63476562 C-656.39185547 246.03470703 -655.75441406 245.43464844 -655.09765625 244.81640625 C-654.52539307 244.27443604 -653.95312988 243.73246582 -653.36352539 243.17407227 C-652 242 -652 242 -651 242 C-650.99853344 242.78923355 -650.99706688 243.5784671 -650.99555588 244.39161682 C-650.95839024 263.65806122 -650.89924705 282.92432577 -650.81609726 302.19062805 C-650.77640706 311.50794741 -650.74396393 320.82518353 -650.72900391 330.14257812 C-650.71593518 338.27029563 -650.68883853 346.39782921 -650.64538693 354.52544308 C-650.6228887 358.82293434 -650.60708226 363.12019976 -650.60811615 367.41775513 C-650.60886972 371.47592935 -650.590644 375.53360654 -650.55883217 379.59165192 C-650.55042382 381.06846086 -650.54852028 382.54532616 -650.55419731 384.02214813 C-650.59971052 397.70081258 -649.13173387 413.11069392 -640 424 C-622.18389236 441.69532047 -596.49529653 450.83753671 -573 458 C-572.26668457 458.2263916 -571.53336914 458.4527832 -570.77783203 458.68603516 C-503.24559659 479.28671477 -423.02870484 480.20429708 -357 453 C-357.70125 452.59910156 -358.4025 452.19820312 -359.125 451.78515625 C-370.71995816 444.83763376 -378.29180096 436.30165889 -382.10546875 423.203125 C-384.8771295 411.47845118 -383.7433966 399.63324056 -378 389 C-371.00545907 377.9848441 -361.37259692 371.12419897 -349 367 C-334.34630526 365.63982859 -321.54529671 366.75074079 -309.80078125 376.35546875 C-299.94448879 385.35655145 -294.30096977 395.92789501 -293.4375 409.25 C-293.31181641 411.14492188 -293.31181641 411.14492188 -293.18359375 413.078125 C-293.12300781 414.04234375 -293.06242187 415.0065625 -293 416 C-292.05441313 414.96566873 -291.11897416 413.92205854 -290.1875 412.875 C-289.66542969 412.29492188 -289.14335938 411.71484375 -288.60546875 411.1171875 C-274.99127804 393.16368053 -283.38116652 368.34532494 -283 347 C-365.83 347 -448.66 347 -534 347 C-534 306.08 -534 265.16 -534 223 C-521.16851074 223.02618408 -508.33702148 223.05236816 -495.11669922 223.0793457 C-454.04624144 223.15961997 -412.97578334 223.21522277 -371.90526747 223.25532665 C-365.52424713 223.26158007 -359.14322702 223.26805169 -352.76220703 223.2746582 C-350.85671271 223.27662553 -350.85671271 223.27662553 -348.91272356 223.2786326 C-328.35212365 223.30038057 -307.79159374 223.33979879 -287.23103534 223.38576398 C-266.12912053 223.43254547 -245.02724236 223.460299 -223.92527783 223.47044247 C-210.90748986 223.47729808 -197.88989978 223.49893975 -184.87217273 223.53958233 C-175.94165598 223.56604153 -167.01124131 223.57399376 -158.08068822 223.56750689 C-152.9305905 223.56430899 -147.78083823 223.56916123 -142.63080215 223.59602737 C-137.90884114 223.62047964 -133.18745567 223.62151031 -128.46546735 223.60449447 C-126.76400656 223.60239356 -125.06250886 223.60863435 -123.36111997 223.62441591 C-110.4226776 223.73737746 -98.03968824 222.30447144 -87.65356445 213.64868164 C-82.50020695 208.51054149 -78.86111629 202.43091275 -75.8125 195.875 C-75.44012207 195.08222656 -75.06774414 194.28945313 -74.68408203 193.47265625 C-69.49439095 182.09074436 -65.43922636 170.2334783 -61.24414062 158.45898438 C-59.87020166 154.63913208 -58.43898211 150.84387728 -56.99584961 147.04980469 C-53.63895678 138.1846714 -50.94056967 129.23990987 -48.54980469 120.06982422 C-48.04124246 118.15526359 -47.49489698 116.25084695 -46.9453125 114.34765625 C-41.81183223 96.34068089 -38.36122718 77.33911186 -39.30078125 58.5859375 C-39.34235352 57.43134033 -39.38392578 56.27674316 -39.42675781 55.0871582 C-39.51545532 52.78405408 -39.64713947 50.4820974 -39.82714844 48.18432617 C-40.10577726 40.27614946 -40.10577726 40.27614946 -36.94482422 36.62817383 C-34.38014088 34.58676281 -31.7466771 32.78618425 -29 31 C-27.89204593 30.07158323 -26.80380701 29.11835595 -25.75 28.12890625 C-23.82289306 26.3304556 -21.89383842 24.53438505 -19.9609375 22.7421875 C-19.2198877 22.05334473 -19.2198877 22.05334473 -18.46386719 21.35058594 C-16.20816906 19.26944484 -13.9154023 17.23029124 -11.625 15.1875 C-10.08178041 13.79338375 -8.53995518 12.39772131 -7 11 C-6.36707031 10.43410156 -5.73414063 9.86820313 -5.08203125 9.28515625 C-1.96638965 6.37673072 -0.25534989 4.34094808 0 0 Z " fill="#FEE17B" transform="translate(1086,543)"/>
<path d="M0 0 C12.33629092 -0.09323652 24.67249614 -0.16403479 37.00906944 -0.20724869 C42.73924705 -0.22800334 48.4691812 -0.25609605 54.19921875 -0.30175781 C59.74302136 -0.34565221 65.2865918 -0.3692279 70.83055496 -0.37950897 C72.93135857 -0.38682292 75.03215143 -0.40110177 77.13285446 -0.42292023 C100.63147675 -0.65697513 122.98067093 2.76910621 141 19 C141.87785156 19.66708984 141.87785156 19.66708984 142.7734375 20.34765625 C154.10159237 29.04321175 161.61773616 42.50050115 168 55 C168.31952637 55.62519531 168.63905273 56.25039063 168.96826172 56.89453125 C185.21936912 89.17587371 192.18087632 126.59335302 197.875 162 C197.98468109 162.66723083 198.09436218 163.33446167 198.20736694 164.02191162 C201.76134617 185.85035803 201.76134617 185.85035803 198.80810547 191.13134766 C197.15736855 193.05999666 195.4354734 194.67126756 193.5 196.3125 C192.85579102 196.90442139 192.21158203 197.49634277 191.54785156 198.10620117 C189.72446582 199.76998325 187.86978139 201.38878266 186 203 C185.22140625 203.70125 184.4428125 204.4025 183.640625 205.125 C182.41983405 206.21463159 181.18615342 207.29006833 179.9375 208.34765625 C176.65398705 211.14791024 173.48701744 214.07870386 170.296875 216.984375 C164.58139535 222 164.58139535 222 162 222 C161.95512451 221.21689453 161.91024902 220.43378906 161.86401367 219.62695312 C156.96835436 130.03004299 156.96835436 130.03004299 117 52.8125 C113.52738714 50.05483685 109.60773387 48.15609305 105.625 46.25 C105.01269531 45.95585205 104.40039062 45.6617041 103.76953125 45.35864258 C95.25245015 41.48897402 86.89584032 40.69269945 77.62109375 40.5859375 C76.56841812 40.56657135 75.51574249 40.5472052 74.4311676 40.5272522 C71.10002506 40.46792253 67.76884708 40.42125867 64.4375 40.375 C62.16600134 40.33677728 59.89451651 40.29772311 57.62304688 40.2578125 C52.08215487 40.16225985 46.54117816 40.07707879 41 40 C41.01571045 40.87398438 41.0314209 41.74796875 41.04760742 42.6484375 C41.94207911 100.25694294 26.96246855 151.40580234 -9 197 C-9.4336084 197.55220215 -9.8672168 198.1044043 -10.31396484 198.67333984 C-42.68894849 239.47761021 -89.45153536 269.02918293 -140.1875 280.75 C-141.04085938 280.94859619 -141.89421875 281.14719238 -142.7734375 281.35180664 C-158.01550635 284.71699487 -172.76795817 285.29578559 -188.31518555 285.28710938 C-190.5312271 285.29314541 -192.74726637 285.30007262 -194.96330261 285.30781555 C-199.70864717 285.32262196 -204.45395026 285.33143299 -209.19931602 285.33552551 C-216.7209574 285.34228647 -224.24251086 285.36409682 -231.76411438 285.38806152 C-242.32442343 285.42032913 -252.88473195 285.44720208 -263.44506836 285.46826172 C-264.1131998 285.46959671 -264.78133123 285.4709317 -265.46970908 285.47230715 C-270.20897235 285.48172925 -274.94823611 285.49089159 -279.6875 285.5 C-285.09269243 285.51039333 -290.49788458 285.52091363 -295.90307617 285.53173828 C-296.56886225 285.53306902 -297.23464832 285.53439977 -297.92060973 285.53577083 C-309.07668537 285.55830835 -320.23272941 285.58863047 -331.38877136 285.62413073 C-338.84710705 285.6473085 -346.3053814 285.66117719 -353.76374948 285.66762543 C-358.42676378 285.67361604 -363.08972909 285.68775665 -367.75271797 285.70396996 C-369.8938622 285.70978418 -372.03501856 285.71233125 -374.17617035 285.71113014 C-406.14834151 284.78985778 -406.14834151 284.78985778 -434 298 C-434.92425781 298.76957031 -434.92425781 298.76957031 -435.8671875 299.5546875 C-446.85311626 309.40901845 -449.59580107 326.44523752 -450.81878662 340.55181885 C-451.1607226 347.05827669 -450.96258722 353.56281903 -450.8306427 360.07400894 C-450.74521697 364.60760928 -450.69984638 369.14168989 -450.6484375 373.67578125 C-450.58242844 379.41494474 -450.50415035 385.15296484 -450.37597656 390.89111328 C-450.27276752 395.55932754 -450.21416563 400.22626256 -450.18504333 404.895504 C-450.16601207 406.66344755 -450.13094219 408.43129902 -450.07899475 410.1985817 C-449.6873914 423.93815106 -449.6873914 423.93815106 -452.91859436 429.01373291 C-455.16359 431.28988367 -457.40481131 433.14227524 -460 435 C-461.36317065 436.18617566 -462.71785315 437.38227918 -464.05859375 438.59375 C-465.03481689 439.43292969 -465.03481689 439.43292969 -466.03076172 440.2890625 C-469.45933044 443.26791318 -472.75497325 446.38816591 -476.0625 449.5 C-476.73087891 450.12519531 -477.39925781 450.75039063 -478.08789062 451.39453125 C-482.02847471 455.09385509 -485.88018754 458.85897806 -489.65014648 462.73242188 C-491 464 -491 464 -492 464 C-492.0468802 447.42228828 -492.0820669 430.84459831 -492.10362434 414.26683617 C-492.1139033 406.56816761 -492.12789835 398.86954043 -492.15087891 391.17089844 C-492.17091698 384.45476203 -492.18374095 377.73865562 -492.18817699 371.02249014 C-492.19076687 367.47178724 -492.19678225 363.92117006 -492.21146011 360.37049484 C-492.227776 356.39067659 -492.22797308 352.41100401 -492.22705078 348.43115234 C-492.23424133 347.27524094 -492.24143188 346.11932953 -492.24884033 344.9283905 C-492.22107285 333.77150669 -491.08996515 322.69488563 -487.375 312.125 C-486.99130249 311.00798706 -486.99130249 311.00798706 -486.59985352 309.8684082 C-484.6855209 304.49248037 -482.44644879 299.31147665 -479.9375 294.1875 C-479.62151855 293.53604004 -479.30553711 292.88458008 -478.97998047 292.21337891 C-476.85660601 288.07220011 -474.38533995 285.15965062 -471 282 C-469.57363559 280.40445003 -468.15690737 278.80023271 -466.75 277.1875 C-455.57801131 264.78640911 -442.72263174 255.66770437 -427 250 C-426.02417969 249.63132812 -425.04835938 249.26265625 -424.04296875 248.8828125 C-409.48991193 243.656682 -395.15150057 243.70015373 -379.89257812 243.69702148 C-377.67532546 243.68934842 -375.45807568 243.68079982 -373.24082947 243.67144775 C-368.48834421 243.65325178 -363.73589763 243.64116059 -358.98338318 243.63390923 C-351.45962316 243.62236474 -343.93594848 243.59688301 -336.41223145 243.56959534 C-325.85767773 243.53274938 -315.3031219 243.50201092 -304.74853516 243.47680664 C-304.08042716 243.47520934 -303.41231916 243.47361204 -302.72396547 243.47196633 C-301.72059161 243.46956798 -301.72059161 243.46956798 -300.69694757 243.46712118 C-291.21511369 243.44443617 -281.73328755 243.41979415 -272.25146484 243.39282227 C-271.58418249 243.39092612 -270.91690014 243.38902997 -270.22939712 243.38707637 C-259.07455972 243.35521862 -247.91973618 243.31945773 -236.7649169 243.28178078 C-229.29461495 243.25696399 -221.82432399 243.23748528 -214.35399628 243.22239864 C-209.69789183 243.21214786 -205.04180464 243.1980016 -200.38571358 243.18292236 C-198.2367907 243.17680105 -196.08786237 243.17232273 -193.93893242 243.16966438 C-172.53648801 243.16905256 -172.53648801 243.16905256 -151.4375 239.875 C-150.03213989 239.54677246 -150.03213989 239.54677246 -148.59838867 239.21191406 C-98.43148542 227.04461535 -54.16981169 194.6999625 -27.18359375 150.70703125 C-10.2590504 122.30323241 -1.01465813 93.11990357 -0.68359375 60.05859375 C-0.66299071 58.32267296 -0.64199343 56.58675682 -0.62062073 54.85084534 C-0.56574569 50.30866277 -0.51618575 45.76643756 -0.46777344 41.22418213 C-0.41730403 36.57845316 -0.36175151 31.93278519 -0.30664062 27.28710938 C-0.19948267 18.19145851 -0.09794581 9.09575441 0 0 Z " fill="#FEF2BE" transform="translate(886,359)"/>
<path d="M0 0 C1.55076514 0.00876508 3.10154472 0.01522468 4.65232849 0.01958752 C7.96381782 0.03368761 11.27463346 0.06350181 14.58587646 0.10620022 C19.9036873 0.17475249 25.22139724 0.20810268 30.53955078 0.23706818 C37.97459406 0.28045459 45.40937839 0.33867079 52.84423828 0.40628052 C63.14615971 0.4981214 73.44771025 0.53737663 83.75 0.55432129 C84.95468591 0.55641872 84.95468591 0.55641872 86.18370891 0.55855852 C89.42520007 0.56417002 92.66669137 0.56963151 95.90818346 0.57468656 C105.0138525 0.58935704 114.11946743 0.61871292 123.22509766 0.6484375 C124.91699533 0.65387853 126.60889304 0.6593092 128.30079079 0.6647296 C130.86719264 0.67296161 133.43359444 0.68120926 135.99999607 0.68951026 C144.97435258 0.71851873 153.94871362 0.7460075 162.92307496 0.77347487 C178.90672752 0.82243127 194.89037653 0.87245298 210.87402344 0.92321777 C226.333006 0.97231376 241.79199013 1.02086244 257.25097656 1.06872559 C258.21566722 1.07171258 259.18035789 1.07469958 260.1742816 1.07777709 C265.01737433 1.09276967 269.8604671 1.10775202 274.70355988 1.1227293 C314.41826368 1.24556023 354.13296181 1.37015037 393.84765625 1.49597168 C393.84765625 1.82597168 393.84765625 2.15597168 393.84765625 2.49597168 C392.79807739 2.66201904 392.79807739 2.66201904 391.72729492 2.8314209 C388.49637674 3.34331808 385.26576656 3.85713518 382.03515625 4.37097168 C380.93494141 4.54499512 379.83472656 4.71901855 378.70117188 4.89831543 C373.75124454 5.68679943 368.82519776 6.49767571 363.9140625 7.49987793 C355.56801301 9.03561754 347.07516763 9.58560201 338.62792969 10.30090332 C335.64577692 10.5543815 332.66470828 10.81848485 329.68359375 11.0838623 C307.54297189 13.0177785 285.45595201 13.61322923 263.23916626 13.88357544 C233.65719625 14.26287013 204.54984354 14.80269854 175.3515625 20.05407715 C172.15067784 20.61897586 168.93947467 21.09390688 165.72265625 21.55847168 C145.51896437 24.66261507 125.32137257 29.2790106 105.84765625 35.49597168 C104.85636719 35.81050293 103.86507812 36.12503418 102.84375 36.44909668 C87.20657402 41.44404681 71.89280641 46.92443441 56.84765625 53.49597168 C55.90921875 53.90541016 54.97078125 54.31484863 54.00390625 54.73669434 C8.19652309 74.89286646 -33.7987781 101.09963944 -72.42138672 132.85461426 C-76.90588313 136.53121228 -81.48759629 140.05109301 -86.15234375 143.49597168 C-87.19677779 139.51141243 -87.02746679 136.60131352 -86.21875 132.57800293 C-85.98639648 131.41969971 -85.75404297 130.26139648 -85.51464844 129.06799316 C-85.25071289 127.82735107 -84.98677734 126.58670898 -84.71484375 125.30847168 C-84.57985474 124.66693146 -84.44486572 124.02539124 -84.30578613 123.3644104 C-78.31646992 95.09090328 -68.19555537 67.77535195 -57.46484375 40.99597168 C-56.82421997 39.37767456 -56.82421997 39.37767456 -56.1706543 37.72668457 C-50.60683679 24.09145834 -44.61165013 12.2899563 -31.15234375 5.49597168 C-20.67335908 1.10640186 -11.31768622 -0.20373809 0 0 Z " fill="#719DC1" transform="translate(241.15234375,357.5040283203125)"/>
<path d="M0 0 C12.8022699 6.49206016 20.5856554 15.71630464 26.1875 28.875 C29.24412033 39.41067069 28.19279543 52.20948651 23.734375 62.078125 C21.31095057 66.4598722 18.61045422 70.22289403 15.1875 73.875 C14.59195313 74.51179687 13.99640625 75.14859375 13.3828125 75.8046875 C3.71144629 85.1550125 -8.38043622 87.27908002 -21.2890625 87.08203125 C-33.15241883 86.6852879 -43.08612087 81.16640829 -51.1875 72.5625 C-60.39127603 61.47270429 -62.91726908 49.03710922 -62.05078125 34.99072266 C-60.75904017 23.52122658 -53.68987522 13.44883333 -44.91015625 6.2890625 C-31.91099037 -2.47387614 -15.00310408 -6.01666899 0 0 Z " fill="#FFFEFE" transform="translate(764.8125,912.125)"/>
<path d="M0 0 C9.72038708 7.15893372 17.58782234 17.02955587 20.08984375 29.078125 C21.86335554 43.46057677 18.88206376 55.63986068 10.375 67.390625 C2.6997207 76.63707912 -7.64448581 82.16812355 -19.625 83.390625 C-33.21052294 84.14932785 -44.39299206 81.08458682 -54.875 72.203125 C-62.48139952 65.01465952 -68.53316727 55.25808886 -69.0234375 44.5859375 C-69.03646469 42.89586548 -69.02811393 41.20551338 -69 39.515625 C-68.98912354 38.63011963 -68.97824707 37.74461426 -68.96704102 36.83227539 C-68.64636634 23.70397525 -64.07612171 13.31978658 -54.5 4.078125 C-38.83291167 -9.02721911 -17.37061903 -10.64984381 0 0 Z " fill="#FEFEFE" transform="translate(478.625,129.609375)"/>
<path d="M0 0 C-0.969375 0.3403125 -1.93875 0.680625 -2.9375 1.03125 C-31.99808134 11.44560148 -56.32410363 28.14957951 -78 50 C-80.66666667 52.66666667 -83.33333333 55.33333333 -86 58 C-86 55 -86 55 -84.390625 53.1328125 C-83.68421875 52.47023438 -82.9778125 51.80765625 -82.25 51.125 C-79.98551009 48.95156475 -77.93388811 46.91529414 -76 44.4375 C-73.03841492 40.82806818 -69.58189441 37.98218606 -66 35 C-65.49065918 34.56768066 -64.98131836 34.13536133 -64.45654297 33.68994141 C-52.79270538 23.82367111 -16.53404498 -6.25931703 0 0 Z " fill="#3771A1" transform="translate(442,530)"/>
<path d="M0 0 C-1.03898437 0.37511719 -2.07796875 0.75023437 -3.1484375 1.13671875 C-21.71744219 7.91099155 -36.36669451 16.48869988 -50 31 C-51.66198505 32.67133517 -53.32746484 34.33922256 -55 36 C-47.26080848 18.98167579 -29.22368109 8.2318463 -12.59375 1.65234375 C-3.99590404 -1.42576858 -3.99590404 -1.42576858 0 0 Z " fill="#D6BE62" transform="translate(468,607)"/>
<path d="M0 0 C0.66 0.33 1.32 0.66 2 1 C0.02 2.98 -1.96 4.96 -4 7 C-4.99 6.67 -5.98 6.34 -7 6 C-4.69 4.02 -2.38 2.04 0 0 Z " fill="#D3B958" transform="translate(428,625)"/>
</svg>
